<?xml version="1.0" standalone="no"?>
<!DOCTYPE svg PUBLIC "-//W3C//DTD SVG 20010904//EN"
 "http://www.w3.org/TR/2001/REC-SVG-20010904/DTD/svg10.dtd">
<svg version="1.0" xmlns="http://www.w3.org/2000/svg"
 width="1094.000000pt" height="1500.000000pt" viewBox="0 0 1094.000000 1500.000000"
 preserveAspectRatio="xMidYMid meet">

<g transform="translate(0.000000,1500.000000) scale(0.100000,-0.100000)"
fill="#000000" stroke="none">
<path d="M5130 14189 c-293 -27 -531 -63 -780 -119 -19 -5 -71 -18 -115 -30
-44 -12 -93 -25 -110 -29 -98 -26 -416 -138 -509 -180 -23 -11 -70 -31 -106
-46 -36 -15 -123 -56 -193 -92 -113 -57 -164 -85 -282 -153 -53 -30 -227 -143
-321 -207 -307 -211 -714 -593 -958 -898 -139 -174 -335 -462 -437 -645 -59
-104 -189 -362 -189 -374 0 -3 -14 -35 -31 -72 -28 -60 -46 -106 -111 -284
-21 -56 -62 -186 -79 -250 -6 -19 -14 -50 -20 -67 -17 -62 -29 -108 -40 -158
-6 -27 -15 -66 -19 -85 -51 -225 -86 -508 -99 -805 -5 -104 -9 -2149 -10
-4542 l-1 -4353 4735 0 4735 0 0 4495 c0 2991 -3 4529 -10 4597 -30 297 -60
482 -116 718 -166 696 -497 1347 -973 1915 -73 87 -363 383 -466 476 -128 116
-348 283 -532 405 -110 74 -203 134 -206 134 -3 0 -38 19 -79 43 -125 74 -301
160 -493 242 -16 7 -51 22 -77 34 -26 11 -54 21 -61 21 -7 0 -17 4 -23 9 -8 8
-292 104 -359 122 -16 4 -48 13 -70 19 -207 58 -516 116 -745 139 -265 27
-339 31 -540 30 -118 -1 -258 -6 -310 -10z m755 -164 c425 -43 814 -130 1155
-260 25 -9 70 -26 100 -38 55 -20 90 -35 185 -77 67 -30 304 -146 335 -164 14
-9 84 -50 155 -92 558 -329 1071 -815 1446 -1370 51 -76 159 -253 159 -261 0
-3 8 -17 19 -31 20 -30 132 -248 181 -357 125 -273 225 -579 300 -920 18 -80
38 -202 55 -330 34 -266 35 -349 35 -4777 l0 -4398 -4552 2 -4553 3 -3 4230
c-3 4597 -4 4587 49 4980 45 338 161 773 284 1060 60 140 86 196 140 307 88
177 156 294 284 488 356 542 882 1042 1446 1374 72 42 141 83 155 92 31 18
268 134 333 163 26 12 66 29 90 40 231 102 670 233 947 281 36 6 88 15 115 20
53 9 187 26 320 39 143 15 657 12 820 -4z"/>
<path d="M6206 12981 c-10 -11 -32 -21 -49 -23 -30 -3 -32 -6 -43 -68 -10 -54
-9 -68 2 -81 12 -14 7 -18 -42 -38 -59 -25 -71 -24 -55 7 6 11 7 22 4 26 -12
12 -52 6 -61 -10 -8 -15 -11 -14 -23 3 -19 27 -96 66 -104 52 -4 -5 -2 -16 5
-24 20 -24 -9 -29 -34 -6 -12 12 -29 21 -38 21 -18 0 -32 -27 -18 -35 6 -4 10
-17 10 -31 0 -19 8 -28 35 -40 35 -14 44 -28 25 -39 -22 -13 -10 -35 19 -35
35 0 52 -19 24 -26 -11 -3 -25 -20 -31 -37 -11 -28 -10 -35 8 -59 20 -27 20
-27 1 -38 -17 -8 -23 -5 -37 20 -20 33 -77 65 -100 56 -20 -8 -53 66 -54 119
0 39 -22 85 -40 85 -5 0 -20 -4 -34 -10 -24 -9 -24 -11 -11 -36 12 -24 11 -31
-6 -63 -10 -20 -16 -44 -13 -55 8 -26 -16 -96 -33 -96 -7 0 -18 11 -23 25 -5
14 -19 45 -30 69 -24 55 -25 66 -3 66 28 0 -6 28 -44 36 -32 6 -54 -8 -78 -51
-10 -16 -13 -16 -42 9 -33 28 -49 31 -73 16 -12 -7 -10 -12 12 -30 15 -11 29
-28 32 -38 3 -9 24 -28 46 -42 44 -27 47 -32 25 -50 -12 -10 -13 -16 -4 -27 7
-7 9 -17 5 -21 -4 -4 -20 8 -34 26 -32 39 -43 40 -59 7 -10 -23 -9 -25 12 -25
25 0 41 -15 26 -24 -13 -8 -8 -121 7 -138 7 -9 10 -22 6 -31 -3 -8 2 -26 10
-40 15 -22 15 -25 -1 -39 -25 -21 -106 -50 -130 -46 -20 3 -83 -37 -83 -53 0
-4 11 -9 25 -11 14 -2 26 -7 26 -13 0 -5 -12 -11 -26 -13 -27 -4 -34 -26 -10
-36 9 -3 35 -3 59 0 43 6 45 6 48 -22 2 -24 7 -29 28 -27 49 4 66 -5 65 -34 0
-25 3 -28 28 -25 15 1 27 -1 27 -5 0 -4 22 -8 50 -9 96 -1 141 -57 50 -61 -25
-1 -51 -2 -57 -2 -7 -1 -13 -11 -13 -24 0 -32 -24 -62 -60 -77 -29 -12 -34
-10 -85 25 -59 41 -80 39 -70 -6 6 -27 5 -29 -24 -29 -26 0 -31 4 -31 25 0 14
-4 25 -10 25 -5 0 -26 -11 -46 -25 -37 -25 -94 -34 -94 -15 0 6 11 10 25 10
29 0 25 25 -6 33 -30 8 -23 22 21 42 22 10 40 25 40 32 0 8 10 23 23 33 35 29
10 42 -91 48 l-90 5 -4 -37 c-2 -19 0 -43 5 -52 6 -11 4 -21 -7 -32 -13 -14
-20 -14 -36 -4 -29 18 -37 15 -44 -13 -8 -33 -33 -43 -50 -20 -11 15 -18 16
-45 7 -35 -12 -61 -7 -61 13 0 35 -94 28 -174 -12 -35 -18 -72 -27 -128 -30
-73 -6 -80 -8 -117 -43 -42 -40 -43 -53 -6 -44 15 4 27 -1 36 -13 21 -30 40
-37 99 -43 48 -4 55 -8 58 -29 2 -13 -1 -28 -7 -34 -16 -16 -13 -37 4 -37 22
0 18 -14 -15 -48 -16 -18 -30 -39 -30 -47 0 -17 65 -67 128 -98 48 -24 53 -39
17 -55 -31 -14 -33 -54 -5 -84 23 -25 26 -58 8 -76 -10 -10 -10 -17 0 -32 15
-25 15 -50 0 -100 -9 -29 -18 -40 -33 -40 -30 0 -42 -12 -50 -47 -4 -22 -3
-33 5 -33 6 0 8 -4 5 -10 -11 -18 -108 -11 -143 10 -38 23 -52 25 -52 7 0 -8
-11 -24 -25 -37 -14 -13 -25 -32 -25 -42 0 -11 -7 -18 -19 -18 -11 0 -33 -12
-51 -26 -30 -25 -31 -26 -50 -9 -29 26 -25 40 20 60 22 10 40 23 40 30 0 14
-60 34 -115 37 -33 3 -41 7 -43 26 -3 18 -8 21 -23 17 -11 -4 -34 -1 -50 5
-40 17 -95 5 -115 -25 -15 -23 -15 -27 -1 -49 15 -22 14 -24 -9 -34 -39 -18
-30 -40 21 -48 50 -7 53 -11 28 -30 -27 -20 -45 -17 -38 6 8 24 3 25 -35 5
-17 -9 -30 -22 -30 -30 0 -9 -9 -15 -24 -15 -26 0 -48 -21 -44 -40 2 -7 -11
-17 -29 -22 -43 -11 -47 -20 -28 -65 9 -21 14 -48 10 -60 -4 -17 2 -25 25 -37
28 -14 34 -13 70 6 43 24 61 18 42 -12 -10 -17 -10 -20 6 -20 19 0 72 49 72
67 0 27 29 35 80 23 l51 -12 -40 -20 c-41 -20 -72 -48 -53 -48 21 0 107 42
115 56 7 12 12 12 22 4 11 -9 11 -16 3 -29 -9 -15 -4 -24 31 -56 27 -24 40
-44 36 -53 -3 -9 0 -19 7 -23 9 -6 6 -14 -11 -33 -26 -28 -26 -28 6 -45 33
-17 46 -14 40 9 -7 25 17 50 47 50 13 0 29 6 35 14 6 7 35 16 64 18 28 3 72
14 96 26 55 27 53 27 45 -2 -3 -14 1 -34 10 -48 29 -45 -12 -123 -99 -184
l-30 -22 30 -57 c33 -62 47 -74 70 -55 7 6 24 10 37 8 16 -2 24 3 26 17 3 11
13 26 23 33 11 7 19 22 19 33 0 10 7 19 15 19 19 0 19 -13 0 -50 -14 -28 -14
-29 14 -49 16 -12 41 -21 54 -21 32 0 43 -16 26 -36 -9 -11 -22 -14 -46 -9
-23 4 -44 0 -74 -15 l-41 -22 -27 26 -26 25 -55 -30 c-88 -48 -100 -79 -52
-142 22 -30 32 -36 53 -31 22 4 27 2 25 -13 -1 -15 6 -17 42 -15 24 2 42 -1
42 -7 0 -9 -60 -31 -87 -31 -6 0 -18 -9 -25 -19 -8 -11 -26 -25 -41 -32 -15
-7 -27 -17 -27 -24 0 -6 33 -22 73 -34 59 -19 79 -21 109 -13 29 8 40 7 49 -4
16 -19 46 -18 58 3 5 10 12 15 16 11 3 -3 1 -15 -6 -26 -17 -27 -6 -48 30 -55
35 -7 39 -22 14 -50 -17 -18 -17 -19 2 -33 38 -28 130 -8 428 91 157 52 293
95 303 95 18 0 776 -296 871 -340 24 -11 47 -20 53 -20 6 0 18 -4 28 -9 28
-15 79 -36 256 -105 93 -37 183 -73 200 -80 17 -8 168 -69 336 -136 168 -67
319 -127 335 -135 17 -7 111 -45 210 -84 99 -39 203 -81 230 -93 202 -85 184
-80 212 -58 26 21 53 26 53 12 0 -5 -11 -15 -25 -22 -16 -9 -22 -17 -16 -23 6
-6 21 -2 39 12 17 11 35 21 41 21 18 0 13 -18 -10 -34 -21 -14 -21 -14 -1 -25
18 -9 22 -6 41 34 25 53 41 58 42 13 1 -47 12 -80 29 -89 35 -20 152 -69 163
-69 7 0 17 -4 23 -8 5 -5 89 -40 186 -78 136 -53 178 -73 182 -89 3 -11 6
-472 6 -1024 0 -552 3 -1007 6 -1010 3 -3 56 -6 117 -6 l112 0 1 1685 c1 1706
-2 1927 -29 2125 -30 220 -37 244 -63 251 -15 4 -24 13 -24 25 0 24 -1 24 -46
-2 -22 -12 -40 -17 -46 -11 -5 5 -11 48 -15 95 l-6 87 25 0 c32 0 58 -29 58
-63 0 -22 5 -27 25 -27 27 0 30 8 16 54 -5 17 -15 51 -22 76 -30 110 -105 326
-146 420 -30 70 -173 356 -204 410 -142 244 -340 499 -558 718 -287 289 -586
503 -960 688 -78 39 -97 45 -112 35 -28 -17 -50 -14 -108 14 -42 21 -52 30
-49 48 2 18 -1 22 -22 19 -14 -1 -41 -3 -60 -5 -25 -1 -38 -8 -45 -24 -17 -40
-85 -22 -85 22 0 14 -6 25 -14 25 -7 0 -27 14 -44 30 -34 32 -65 43 -41 14 11
-14 10 -18 -6 -30 -10 -8 -22 -14 -27 -14 -20 0 -4 -17 37 -39 32 -17 45 -30
45 -46 0 -26 -69 -85 -100 -85 -12 0 -31 -11 -41 -24 -11 -14 -29 -28 -40 -31
-31 -10 -20 -22 51 -58 58 -29 65 -36 62 -60 -2 -21 2 -28 23 -33 19 -5 25
-13 25 -34 0 -16 7 -30 15 -34 23 -9 18 -26 -8 -26 -13 0 -33 12 -46 26 -14
16 -30 24 -44 22 -20 -3 -22 -10 -25 -68 -2 -36 -8 -68 -15 -72 -15 -9 -79
-10 -102 -2 -9 4 -21 17 -26 31 -7 19 -13 22 -36 17 -16 -4 -32 -7 -38 -8 -17
-2 -17 45 1 65 25 28 8 37 -19 10 -26 -24 -57 -20 -57 8 0 27 15 42 34 35 10
-4 28 -1 41 6 19 10 27 10 39 1 11 -9 20 -10 35 -1 29 15 26 36 -6 65 l-28 23
25 27 c21 22 22 28 10 35 -55 32 -56 35 -38 87 l17 48 -25 26 -25 26 23 17
c16 11 19 18 11 22 -18 8 -16 41 4 52 10 6 14 16 10 26 -4 10 -2 27 4 38 8 16
8 24 -3 34 -12 13 -17 12 -32 -5z m755 -264 c-8 -11 0 -21 34 -45 25 -17 45
-36 45 -41 0 -5 12 -12 27 -16 l28 -7 -35 -28 c-26 -21 -31 -30 -20 -33 8 -3
34 -10 57 -17 48 -15 48 -26 -3 -36 -48 -9 -85 10 -114 57 -17 27 -34 42 -53
46 l-28 6 22 23 22 23 -24 9 c-13 5 -33 11 -43 13 -30 6 -24 22 14 41 43 22
88 25 71 5z m-419 -704 c22 -21 37 -26 64 -25 32 2 35 0 32 -20 -2 -19 -11
-24 -47 -29 -26 -3 -50 -13 -58 -25 -14 -18 -15 -18 -44 15 -33 36 -34 74 -2
99 22 16 23 16 55 -15z m-102 -61 c0 -13 -12 -22 -22 -16 -10 6 -1 24 13 24 5
0 9 -4 9 -8z m-307 -67 c18 -13 18 -14 -3 -25 -28 -15 -57 5 -39 26 14 17 19
17 42 -1z m134 -40 c1 -28 -3 -35 -17 -35 -23 0 -52 28 -44 42 5 8 39 26 55
27 3 1 5 -15 6 -34z m1879 -108 c13 -36 12 -38 -12 -49 -28 -13 -37 -7 -51 37
-13 41 -6 57 25 53 19 -2 28 -12 38 -41z m-1948 24 c9 -5 29 -15 45 -22 18 -8
24 -16 17 -23 -7 -7 -23 -3 -49 11 -22 12 -49 19 -60 16 -15 -4 -21 -1 -21 11
0 18 38 22 68 7z m43 -163 c43 -23 79 -45 79 -49 0 -4 -12 -17 -26 -28 l-25
-20 -52 30 c-69 40 -90 65 -77 90 6 10 13 19 16 19 3 0 41 -19 85 -42z m1789
2 c0 -27 -45 -76 -80 -89 -35 -12 -40 1 -13 31 15 17 15 20 3 28 -8 6 -25 10
-37 10 -25 0 -30 14 -10 27 6 4 35 13 62 18 54 12 75 4 75 -25z m-576 -2 c8
-18 19 -57 26 -86 16 -70 6 -83 -66 -80 -46 2 -59 -2 -98 -31 l-46 -32 -30 21
c-35 25 -33 21 -18 55 9 20 18 25 50 25 43 0 59 20 37 46 -12 14 -10 19 14 38
33 26 34 34 5 38 -12 2 -23 8 -25 15 -5 13 22 20 90 22 45 1 49 -1 61 -31z
m-1457 -52 c11 -11 -7 -36 -32 -42 -45 -11 -100 33 -62 50 14 6 86 0 94 -8z
m509 -8 c3 -3 -8 -28 -25 -54 -37 -59 -29 -63 61 -36 l64 19 67 -30 c37 -17
67 -36 67 -43 0 -7 -25 -40 -56 -73 -85 -92 -167 -117 -281 -87 l-53 14 0 -38
0 -37 -82 -31 c-75 -27 -85 -28 -100 -14 -29 25 -21 54 33 116 41 48 50 65 45
86 -4 21 2 34 23 54 34 32 42 32 71 1 26 -27 40 -31 57 -14 8 8 2 31 -23 86
-19 42 -34 80 -34 86 0 10 155 5 166 -5z m-536 -70 c0 -7 -5 -20 -10 -28 -12
-19 -35 2 -27 24 7 19 37 21 37 4z m2454 -214 c28 -49 22 -58 -31 -52 -20 2
-29 9 -31 26 -2 12 -8 22 -13 22 -19 0 -8 37 14 47 28 13 30 12 61 -43z
m-2644 26 c36 -68 -121 -130 -183 -72 -46 43 -94 48 -156 16 -32 -17 -39 -10
-16 16 15 17 30 20 99 19 45 0 108 -6 141 -13 33 -7 63 -11 68 -9 4 2 7 17 7
34 0 34 24 40 40 9z m-637 -74 c35 -14 31 -34 -11 -52 -32 -13 -34 -12 -39 6
-4 16 -14 20 -50 20 -53 0 -55 19 -3 36 35 12 56 10 103 -10z m502 -147 l0
-64 -37 -3 c-20 -2 -47 2 -58 8 -25 13 -56 79 -43 91 10 9 114 37 128 34 6 -1
10 -31 10 -66z m-877 39 c-3 -7 -28 -17 -56 -22 -48 -9 -52 -12 -52 -38 0 -38
-25 -37 -73 3 -43 35 -46 46 -14 59 36 14 199 13 195 -2z m715 -86 c29 -28 33
-51 16 -101 -13 -37 -19 -38 -48 -7 -20 21 -32 24 -78 23 -53 -2 -56 0 -89 38
-18 22 -32 45 -31 50 2 6 33 22 68 37 l64 27 35 -21 c19 -12 47 -33 63 -46z
m-313 -106 c30 -9 45 -19 44 -30 0 -9 -1 -32 -2 -51 l-2 -35 -53 0 c-32 0 -61
6 -76 16 -20 14 -22 22 -17 57 4 22 9 44 12 49 7 12 42 10 94 -6z m3528 -381
c20 -7 14 -21 -14 -34 -24 -10 -26 -16 -22 -64 3 -50 2 -52 -24 -55 -27 -3
-36 4 -90 68 -28 32 -29 50 -2 50 8 0 19 11 24 25 9 24 13 25 62 20 29 -4 59
-8 66 -10z m-3700 -88 c40 -11 56 -33 30 -42 -7 -2 -53 -16 -103 -31 -49 -15
-96 -29 -102 -32 -16 -5 -17 31 -3 59 8 14 21 19 55 19 25 0 45 5 45 10 0 6
-7 10 -15 10 -16 0 -20 12 -9 23 7 7 31 3 102 -16z m597 -29 c19 -8 34 -8 62
0 20 6 38 10 39 9 1 -1 4 -18 8 -37 l6 -36 -80 -39 c-44 -21 -80 -45 -80 -52
0 -7 4 -13 9 -13 6 0 16 -12 23 -27 10 -21 21 -28 43 -29 45 -1 41 -14 -12
-39 -45 -20 -87 -55 -67 -55 5 0 31 7 57 15 56 17 64 9 50 -46 -7 -31 -18 -39
-103 -81 -113 -56 -210 -74 -210 -39 0 11 5 23 10 26 13 8 13 45 0 45 -6 0
-22 -7 -36 -16 -23 -15 -26 -15 -43 0 -9 9 -23 16 -30 16 -31 0 -148 -45 -161
-62 -10 -12 -22 -17 -33 -12 -18 6 -23 20 -9 26 4 2 33 34 66 71 59 69 99 97
136 97 16 0 20 -6 20 -30 0 -16 5 -30 10 -30 6 0 10 17 10 38 0 42 17 74 92
168 51 65 51 66 64 42 13 -23 13 -23 14 9 0 33 29 63 61 63 9 0 22 7 29 15 15
18 21 18 55 3z m-515 -70 c-1 -38 -41 -55 -138 -59 -66 -3 -104 5 -71 15 8 2
52 15 99 29 101 30 110 31 110 15z m1240 -117 c0 -56 -24 -80 -92 -91 -31 -5
-82 -20 -113 -34 -30 -14 -62 -26 -70 -26 -22 0 -18 28 5 40 11 6 19 16 17 23
-1 7 10 13 26 15 34 4 35 19 2 32 -54 20 -15 34 128 44 21 1 45 10 55 19 28
28 42 21 42 -22z m115 27 c14 -6 25 -17 25 -24 0 -13 -68 -54 -90 -54 -15 0
-12 26 5 60 17 33 23 35 60 18z m91 -54 c2 -5 -11 -20 -27 -33 -36 -28 -59
-17 -38 18 18 28 59 38 65 15z m-716 -219 c9 -11 7 -19 -12 -38 -19 -19 -31
-22 -66 -19 -33 3 -42 8 -40 21 4 16 30 19 59 7 12 -5 18 0 23 18 7 29 18 33
36 11z m-1009 -59 c-38 -39 -112 -66 -182 -66 -59 0 -64 15 -15 47 50 33 115
52 175 53 l55 0 -33 -34z m83 -37 c9 -22 14 -45 11 -50 -7 -10 -98 -13 -108
-2 -7 6 61 90 74 92 4 1 14 -17 23 -40z m246 -35 c0 -29 -71 -103 -149 -154
-78 -52 -109 -80 -130 -119 -8 -12 -19 -8 -66 28 -49 37 -55 45 -41 53 9 5 30
6 47 3 20 -5 38 -1 54 9 29 19 31 34 8 51 -14 11 -11 16 28 43 25 16 64 35 87
42 24 6 46 18 49 26 7 19 32 29 78 30 22 0 35 -4 35 -12z m-512 -20 c27 -8 27
-15 5 -43 -12 -14 -36 -23 -72 -27 -53 -7 -53 -7 -46 17 16 53 51 69 113 53z
m1037 -78 c41 -18 46 -36 9 -36 -33 0 -64 17 -64 35 0 19 12 19 55 1z m864
-180 c16 -10 4 -26 -20 -26 -10 0 -28 -9 -39 -20 -23 -23 -39 -25 -64 -7 -17
13 -17 15 14 39 31 24 81 31 109 14z m1411 -26 c13 -8 13 -9 0 -14 -42 -13
-60 -13 -60 -2 0 26 31 35 60 16z m379 -201 c14 -41 14 -76 0 -85 -17 -10 -26
7 -34 64 -6 43 -4 52 8 52 8 0 20 -14 26 -31z m518 -60 c27 -10 27 -11 9 -25
-29 -21 -46 -17 -46 11 0 29 -1 29 37 14z m-927 -37 c0 -17 -39 -44 -55 -39
-15 7 -20 28 -8 40 9 10 63 9 63 -1z m-160 -12 c0 -10 -58 -50 -72 -50 -10 0
-10 44 -1 53 10 11 73 8 73 -3z m1010 -32 c22 -21 23 -23 6 -26 -26 -5 -106 8
-106 17 0 10 39 29 61 30 8 1 26 -9 39 -21z m-52 -46 c6 -9 9 -25 6 -35 -4
-11 -1 -23 7 -28 26 -16 -20 -22 -67 -9 -52 15 -92 63 -73 86 14 18 110 7 127
-14z m-641 -57 l37 -16 -29 -19 c-45 -30 -72 -26 -77 10 -7 46 7 51 69 25z
m751 -37 c-6 -18 -52 -33 -73 -24 -23 8 -15 16 27 26 48 11 50 11 46 -2z
m-808 -73 c0 -3 -17 -16 -38 -30 -27 -18 -57 -26 -109 -31 l-72 -7 9 34 c6 19
10 35 10 36 0 2 45 3 100 3 55 0 100 -2 100 -5z m-64 -116 l23 -21 27 21 c15
11 33 21 40 21 20 0 17 -44 -4 -63 -30 -27 -164 -79 -176 -67 -11 11 42 129
58 129 6 1 20 -9 32 -20z m484 -265 c0 -64 -6 -74 -28 -52 -15 15 -16 100 0
116 20 20 28 2 28 -64z"/>
<path d="M8648 9113 c7 -3 16 -2 19 1 4 3 -2 6 -13 5 -11 0 -14 -3 -6 -6z"/>
<path d="M4205 10340 c3 -5 13 -10 21 -10 8 0 14 5 14 10 0 6 -9 10 -21 10
-11 0 -17 -4 -14 -10z"/>
<path d="M1887 9540 c-11 -38 -9 -1050 2 -1050 6 0 13 5 16 10 3 6 15 10 26
10 10 0 27 4 37 10 9 5 121 43 247 85 127 41 238 80 247 85 10 6 25 10 33 10
8 0 23 4 33 10 9 5 82 30 162 56 80 25 154 50 165 55 11 4 38 13 60 20 22 7
44 17 50 21 5 4 19 8 31 8 13 0 26 5 29 10 3 6 17 10 31 10 13 0 24 3 24 8 0
4 23 13 52 20 28 6 54 15 57 19 3 5 11 8 16 9 28 1 86 17 91 25 3 5 16 9 30 9
13 0 24 5 24 10 0 6 11 10 24 10 14 0 28 5 31 10 3 6 17 10 30 10 13 0 27 5
31 11 5 9 -4 9 -32 3 -61 -13 -152 -8 -195 11 -21 10 -39 22 -39 27 0 4 -18 8
-40 8 -22 0 -40 4 -40 9 0 9 -121 51 -147 51 -7 0 -13 5 -13 10 0 6 -9 10 -19
10 -11 0 -22 4 -25 9 -3 5 -38 17 -76 26 -39 10 -77 24 -85 31 -7 8 -24 14
-37 14 -13 0 -28 4 -34 8 -5 5 -43 19 -84 32 -41 13 -79 27 -84 32 -6 4 -23 8
-38 8 -15 0 -28 4 -28 10 0 5 -26 17 -57 25 -32 9 -70 23 -85 30 -14 8 -34 15
-43 15 -9 0 -22 6 -29 13 -7 7 -49 21 -92 31 -43 10 -90 26 -104 36 -14 10
-51 23 -82 30 -45 10 -58 17 -60 34 -3 19 -4 19 -11 -4z"/>
<path d="M3548 9063 c7 -3 16 -2 19 1 4 3 -2 6 -13 5 -11 0 -14 -3 -6 -6z"/>
<path d="M3490 9050 c0 -5 5 -10 10 -10 6 0 10 5 10 10 0 6 -4 10 -10 10 -5 0
-10 -4 -10 -10z"/>
<path d="M5180 8879 c-25 -4 -65 -13 -90 -19 -25 -6 -60 -14 -78 -17 -18 -3
-35 -9 -38 -14 -3 -5 -16 -9 -29 -9 -13 0 -27 -4 -30 -10 -3 -5 -15 -10 -26
-10 -10 0 -27 -4 -37 -9 -27 -14 -62 -28 -127 -51 -58 -20 -205 -88 -215 -100
-5 -5 -96 -54 -137 -74 -13 -6 -23 -14 -23 -19 0 -4 12 -1 28 7 24 12 98 46
112 51 17 6 71 27 110 42 49 20 97 33 118 33 12 0 22 5 22 10 0 6 18 10 39 10
22 0 42 4 45 9 6 10 121 25 191 24 47 0 89 -7 210 -33 28 -6 65 -14 83 -17 18
-3 35 -9 38 -14 3 -5 16 -9 29 -9 13 0 27 -4 30 -10 3 -5 15 -10 26 -10 10 0
28 -4 39 -10 11 -5 29 -14 40 -20 11 -5 26 -10 33 -10 7 0 35 -11 63 -24 27
-13 66 -29 87 -37 20 -7 37 -16 37 -19 0 -4 16 -12 35 -20 19 -8 35 -17 35
-22 0 -4 4 -8 10 -8 31 0 233 -150 334 -248 117 -114 276 -310 276 -341 0 -6
5 -11 10 -11 6 0 10 -7 10 -15 0 -8 4 -15 8 -15 5 0 14 -16 22 -35 8 -19 16
-35 19 -35 4 0 12 -15 20 -32 8 -18 25 -55 38 -82 12 -28 23 -56 23 -63 0 -7
5 -13 10 -13 6 0 10 -7 10 -15 0 -8 5 -25 12 -38 24 -47 28 -57 28 -75 0 -10
4 -22 8 -27 5 -6 14 -30 21 -55 8 -25 17 -56 22 -70 8 -24 25 -101 35 -165 3
-16 9 -39 14 -50 5 -11 12 -42 15 -70 3 -27 10 -81 16 -120 6 -38 13 -183 15
-321 l5 -251 42 -13 c23 -7 56 -17 72 -21 17 -5 57 -17 90 -27 33 -11 92 -27
130 -36 39 -10 78 -22 88 -27 18 -10 18 0 13 218 -5 207 -14 347 -29 428 -3
17 -9 57 -13 90 -4 33 -9 67 -11 75 -2 8 -6 35 -9 60 -3 25 -10 49 -15 55 -5
5 -9 24 -9 41 0 18 -4 36 -10 39 -5 3 -10 19 -10 35 0 16 -4 32 -10 35 -5 3
-10 19 -10 35 0 16 -4 32 -10 35 -5 3 -10 17 -10 30 0 13 -4 27 -10 30 -5 3
-10 15 -10 26 0 10 -4 27 -9 37 -18 35 -61 153 -61 167 0 8 -4 15 -10 15 -5 0
-10 6 -10 14 0 21 -111 228 -161 303 -16 23 -29 46 -29 51 0 6 -4 12 -8 14 -4
2 -27 30 -50 63 -95 134 -331 364 -439 427 -18 11 -33 24 -33 29 0 5 -6 9 -13
9 -7 0 -36 16 -64 35 -29 19 -56 35 -60 35 -4 0 -19 9 -33 20 -14 11 -33 20
-42 20 -10 0 -18 5 -18 10 0 6 -6 10 -13 10 -7 0 -37 11 -65 25 -29 14 -58 25
-66 25 -8 0 -18 5 -21 10 -3 6 -15 10 -26 10 -10 0 -27 4 -37 9 -48 24 -131
51 -160 51 -12 0 -22 4 -22 9 0 5 -17 11 -37 14 -21 3 -60 11 -88 17 -129 29
-211 34 -295 19z"/>
<path d="M5696 7574 c-3 -9 -6 -63 -6 -120 l0 -105 204 1 c144 1 207 5 214 13
4 7 6 59 3 117 l-6 105 -202 2 c-174 2 -202 1 -207 -13z"/>
<path d="M6177 7584 c-4 -4 -7 -56 -7 -115 l0 -108 195 1 c133 1 195 5 195 12
0 6 -17 56 -38 111 l-38 100 -150 3 c-83 1 -153 -1 -157 -4z"/>
<path d="M3914 7051 c-2 -2 -4 -122 -4 -267 l0 -262 69 -4 c67 -3 70 -2 75 22
2 14 0 29 -5 34 -5 6 -9 1 -9 -13 0 -20 -4 -22 -52 -19 l-53 3 0 215 0 215
170 0 170 0 0 -215 0 -215 -48 -3 c-29 -2 -55 2 -64 9 -13 11 -14 10 -11 -9 3
-21 9 -23 101 -27 l97 -4 0 269 0 269 -216 3 c-119 2 -218 1 -220 -1z"/>
<path d="M4896 7043 c-3 -10 -4 -130 -3 -268 l2 -250 66 -3 c62 -3 67 -1 72
20 4 12 2 27 -3 32 -7 7 -10 2 -10 -12 0 -20 -5 -22 -50 -22 l-50 0 0 220 0
220 168 -2 167 -3 3 -217 2 -218 -55 0 c-46 0 -55 3 -55 18 -1 16 -1 16 -10 0
-21 -35 -3 -43 95 -45 l95 -2 0 270 0 270 -205 -1 c-112 -1 -209 1 -214 4 -5
4 -12 -2 -15 -11z"/>
<path d="M5874 7045 c-3 -6 -3 -125 -2 -265 l3 -255 66 -3 c62 -3 67 -1 73 20
9 34 7 50 -4 43 -5 -3 -10 -15 -10 -26 0 -16 -7 -19 -50 -19 l-50 0 2 218 3
217 162 3 c153 2 163 1 173 -17 7 -13 9 -92 8 -218 l-3 -198 -63 0 c-59 0 -62
-1 -62 -24 0 -20 2 -21 15 -11 11 9 38 10 100 5 l85 -7 0 271 0 270 -221 3
c-144 2 -223 -1 -225 -7z"/>
<path d="M4971 6727 c-15 -19 3 -58 43 -96 l25 -24 7 27 c4 19 1 32 -15 48
-12 13 -27 31 -34 41 -12 17 -14 17 -26 4z"/>
<path d="M5957 6733 c-14 -13 -6 -47 19 -80 29 -38 40 -41 49 -12 5 14 1 27
-13 40 -11 10 -23 27 -27 39 -6 20 -16 25 -28 13z"/>
<path d="M3985 6720 c-16 -26 51 -110 75 -95 13 8 13 45 0 45 -5 0 -16 14 -25
30 -15 30 -38 39 -50 20z"/>
<path d="M4175 6711 c-3 -10 -14 -26 -24 -35 -17 -16 -19 -57 -2 -56 23 2 71
64 71 94 0 22 -37 20 -45 -3z"/>
<path d="M5155 6711 c-3 -10 -14 -26 -24 -35 -19 -17 -18 -56 1 -56 19 0 68
62 68 86 0 29 -36 34 -45 5z"/>
<path d="M6135 6711 c-3 -10 -14 -26 -24 -35 -17 -16 -19 -56 -2 -56 28 0 89
80 76 100 -10 17 -43 11 -50 -9z"/>
<path d="M5984 6464 c-4 -14 -2 -35 4 -47 9 -19 11 -15 11 26 1 52 -5 61 -15
21z"/>
<path d="M5013 6430 c0 -25 2 -35 4 -22 2 12 2 32 0 45 -2 12 -4 2 -4 -23z"/>
<path d="M4026 6445 c-3 -8 -1 -25 4 -37 8 -20 9 -18 9 15 1 39 -3 47 -13 22z"/>
<path d="M6130 6423 c0 -21 5 -45 10 -53 7 -11 10 -2 10 32 0 26 -4 50 -10 53
-6 4 -10 -9 -10 -32z"/>
<path d="M4173 6415 c0 -22 2 -30 4 -17 2 12 2 30 0 40 -3 9 -5 -1 -4 -23z"/>
<path d="M5153 6415 c0 -22 2 -30 4 -17 2 12 2 30 0 40 -3 9 -5 -1 -4 -23z"/>
<path d="M5967 6346 c-3 -8 -2 -27 3 -43 8 -26 8 -25 9 15 1 43 -3 52 -12 28z"/>
<path d="M4007 6317 c-3 -8 -1 -20 4 -28 6 -10 9 -7 9 14 0 29 -5 35 -13 14z"/>
<path d="M4192 6305 c0 -16 2 -22 5 -12 2 9 2 23 0 30 -3 6 -5 -1 -5 -18z"/>
<path d="M4992 6305 c0 -16 2 -22 5 -12 2 9 2 23 0 30 -3 6 -5 -1 -5 -18z"/>
<path d="M5172 6300 c0 -14 2 -19 5 -12 2 6 2 18 0 25 -3 6 -5 1 -5 -13z"/>
<path d="M6151 6303 c-1 -12 4 -25 9 -28 12 -7 12 2 0 30 -8 19 -9 19 -9 -2z"/>
<path d="M6695 6240 c-4 -6 5 -10 20 -10 15 0 24 4 20 10 -3 6 -12 10 -20 10
-8 0 -17 -4 -20 -10z"/>
<path d="M4278 6233 c6 -2 18 -2 25 0 6 3 1 5 -13 5 -14 0 -19 -2 -12 -5z"/>
<path d="M4888 6233 c6 -2 18 -2 25 0 6 3 1 5 -13 5 -14 0 -19 -2 -12 -5z"/>
<path d="M5858 6233 c6 -2 18 -2 25 0 6 3 1 5 -13 5 -14 0 -19 -2 -12 -5z"/>
<path d="M6765 6230 c-4 -6 3 -10 14 -10 25 0 27 6 6 13 -8 4 -17 2 -20 -3z"/>
<path d="M1670 6188 c0 -5 8 -11 18 -15 9 -4 35 -18 57 -33 22 -14 54 -31 70
-37 28 -11 285 -25 485 -27 l85 -1 1 51 1 52 -261 7 c-144 4 -305 8 -358 10
-54 1 -98 -1 -98 -7z"/>
<path d="M1825 6035 c-1 -5 -10 -36 -20 -68 -16 -49 -17 -65 -7 -108 7 -28 12
-66 12 -85 l0 -35 200 3 c139 2 203 7 211 15 17 17 13 253 -4 270 -16 15 -388
23 -392 8z"/>
<path d="M2318 6020 c-14 -8 -16 -28 -14 -132 3 -131 5 -135 63 -137 23 -1 23
0 20 132 -1 73 -6 135 -12 139 -14 10 -37 9 -57 -2z"/>
<path d="M1904 5689 c-2 -4 11 -9 29 -12 54 -9 91 -18 112 -27 11 -5 31 -11
45 -13 14 -3 72 -18 130 -32 58 -15 120 -29 138 -32 18 -3 35 -9 38 -14 3 -5
12 -9 20 -9 11 0 12 5 6 18 -5 9 -13 39 -16 65 -4 27 -13 50 -19 52 -21 7
-479 10 -483 4z"/>
<path d="M6360 5054 c-47 -36 -98 -77 -113 -92 l-28 -28 11 -90 c20 -176 39
-433 49 -669 20 -462 22 -479 75 -570 28 -47 89 -106 135 -129 116 -61 297
-80 465 -51 107 19 193 57 269 119 l58 47 48 -44 c86 -80 165 -110 339 -129
225 -24 405 22 511 131 55 57 128 196 160 306 29 102 37 222 30 470 -3 121 -2
225 3 231 5 6 44 32 88 58 44 25 80 50 80 55 0 4 -16 29 -35 54 -93 122 -185
302 -185 363 0 41 -26 39 -92 -9 -113 -81 -148 -134 -148 -225 0 -26 11 -144
25 -262 27 -243 49 -619 39 -689 -11 -80 -43 -109 -149 -137 -69 -19 -304 -18
-374 1 -72 19 -140 62 -163 105 -16 29 -19 48 -14 105 3 39 11 84 18 102 16
43 6 50 -43 27 -98 -44 -124 -67 -163 -150 -45 -96 -92 -142 -176 -173 -56
-21 -87 -25 -224 -29 -173 -5 -218 3 -273 44 -60 45 -61 58 -68 604 -6 458
-17 675 -38 708 -14 20 -29 14 -117 -54z"/>
<path d="M2143 5009 c-51 -44 -93 -84 -93 -88 0 -8 181 -159 219 -183 15 -9
26 -5 64 21 25 17 70 53 99 80 l53 49 -45 47 c-63 65 -174 155 -191 155 -8 -1
-56 -37 -106 -81z"/>
<path d="M1710 4998 c-52 -45 -96 -85 -98 -89 -2 -4 40 -42 94 -86 159 -129
139 -119 182 -87 71 54 152 127 152 138 0 20 -207 206 -228 206 -4 0 -50 -37
-102 -82z"/>
<path d="M8975 5039 c-27 -23 -80 -70 -118 -105 -53 -51 -66 -69 -62 -87 6
-29 30 -254 46 -432 12 -141 18 -774 9 -939 -4 -78 -3 -90 13 -100 16 -9 28
-2 83 59 164 177 169 206 161 844 -6 431 -26 761 -48 787 -17 21 -29 17 -84
-27z"/>
<path d="M7126 4571 c-47 -54 -86 -103 -86 -107 0 -5 28 -25 62 -44 34 -19 99
-59 145 -88 l82 -54 37 29 c42 31 144 151 144 168 0 22 -256 195 -289 195 -5
0 -48 -44 -95 -99z"/>
<path d="M1972 4598 c-5 -7 -16 -53 -23 -103 l-13 -90 -72 -77 c-177 -189
-244 -329 -244 -513 0 -199 101 -343 283 -400 83 -27 273 -28 367 -2 89 24
194 76 257 125 93 74 152 228 153 397 0 211 -77 315 -360 490 -69 43 -140 86
-158 97 -19 10 -57 34 -85 53 -54 37 -88 44 -105 23z m216 -445 c108 -56 188
-111 233 -160 103 -110 93 -153 -52 -216 -89 -38 -156 -50 -270 -45 -114 4
-179 26 -232 76 -105 99 -65 201 142 361 62 48 58 48 179 -16z"/>
<path d="M5345 4391 c-240 -41 -509 -238 -763 -560 l-19 -24 -37 22 c-69 43
-93 136 -64 246 7 24 9 47 5 51 -4 4 -41 -13 -82 -37 -72 -42 -77 -47 -108
-114 -53 -116 -73 -142 -130 -169 -90 -42 -198 -58 -370 -54 -151 3 -153 3
-222 37 -83 41 -145 102 -211 206 -26 41 -53 75 -59 75 -19 0 -49 -39 -109
-143 l-58 -98 28 -47 c30 -52 127 -181 168 -224 14 -15 26 -37 26 -50 0 -13
-21 -65 -47 -117 -83 -167 -227 -285 -398 -326 -148 -35 -370 -8 -529 64 -37
17 -72 28 -77 25 -18 -11 -8 -51 21 -82 17 -18 30 -35 30 -38 0 -2 -139 -4
-308 -4 -170 0 -311 -2 -314 -5 -2 -3 -3 -18 0 -35 l4 -30 352 0 351 0 66 -47
c152 -112 295 -166 439 -166 155 0 243 36 361 150 l66 63 2919 2 2919 3 3 33
3 32 -2895 0 c-1593 0 -2896 3 -2896 8 0 4 17 41 38 82 35 69 60 139 94 264 7
27 15 49 18 49 3 0 51 -6 108 -13 112 -15 255 -5 377 26 70 18 210 83 242 113
29 27 34 27 69 -10 102 -107 337 -153 669 -130 269 19 413 50 561 122 310 151
410 523 196 735 -42 41 -81 64 -176 103 -37 15 -197 22 -261 12z m185 -308
c25 -12 62 -39 84 -60 35 -35 75 -103 76 -129 0 -15 -121 -69 -209 -93 -145
-40 -282 -53 -513 -49 -119 1 -220 7 -225 12 -12 12 116 126 220 197 103 69
154 94 257 126 99 30 242 29 310 -4z"/>
<path d="M1700 2518 c0 -7 0 -204 -1 -438 l0 -425 63 0 63 0 3 253 c1 156 6
252 12 252 6 0 10 -3 10 -6 0 -27 125 -491 134 -496 6 -4 41 -8 79 -8 l67 0 0
440 0 441 -62 -3 -63 -3 -3 -252 c-1 -157 -6 -253 -12 -253 -6 0 -10 3 -10 6
0 26 -125 491 -134 496 -20 14 -146 9 -146 -4z"/>
<path d="M2416 2513 c-6 -21 -25 -127 -61 -333 -13 -80 -38 -223 -55 -319 -16
-96 -30 -183 -30 -193 0 -17 7 -19 63 -16 l62 3 11 56 c6 31 14 61 18 68 8 12
144 15 162 3 6 -4 15 -32 19 -62 4 -30 13 -58 19 -62 15 -10 114 -10 119 0 2
4 -4 54 -14 112 -24 136 -71 406 -104 594 -14 82 -28 153 -31 158 -3 4 -43 8
-89 8 -71 0 -84 -3 -89 -17z m108 -280 c4 -27 16 -105 27 -175 28 -174 29
-173 -46 -169 -33 1 -62 4 -63 6 -2 2 6 66 18 142 12 76 24 158 27 183 9 87
26 92 37 13z"/>
<path d="M2837 2523 c-4 -3 -7 -26 -7 -50 l0 -43 108 0 c60 0 111 -2 114 -6 5
-4 -188 -588 -216 -655 -4 -9 -6 -38 -4 -65 l3 -49 169 -3 c112 -2 173 1 182
9 7 6 12 27 11 47 l-2 37 -105 5 c-87 4 -105 8 -108 21 -3 14 84 281 182 557
29 85 40 170 24 189 -8 10 -52 13 -178 13 -91 0 -170 -3 -173 -7z"/>
<path d="M3455 2518 c-3 -7 -19 -94 -36 -193 -17 -99 -34 -200 -39 -225 -38
-216 -73 -418 -74 -430 -1 -11 13 -16 58 -18 32 -2 63 1 67 5 5 5 12 31 15 58
4 28 13 56 22 63 20 16 144 16 160 0 7 -7 12 -27 12 -44 0 -18 4 -44 10 -58 9
-24 14 -26 68 -26 32 0 61 2 63 5 3 2 -12 100 -32 217 -21 117 -55 310 -75
428 -20 118 -41 218 -47 222 -21 13 -167 9 -172 -4z m98 -242 c10 -26 59 -377
53 -383 -7 -7 -115 -7 -122 0 -4 3 -1 39 4 79 46 321 51 342 65 304z"/>
<path d="M3905 2518 c-3 -7 -4 -204 -3 -438 l3 -425 65 0 65 0 3 160 c1 88 6
163 11 168 5 5 18 6 29 2 22 -6 27 -21 77 -210 15 -55 32 -106 37 -113 8 -9
31 -12 72 -10 74 4 74 -6 12 198 -39 129 -42 147 -30 165 35 49 38 72 39 240
0 260 -6 267 -232 273 -113 3 -144 1 -148 -10z m229 -104 c13 -13 16 -42 16
-158 0 -97 -4 -146 -12 -154 -7 -7 -31 -12 -55 -12 l-43 0 0 170 0 170 39 0
c23 0 46 -7 55 -16z"/>
<path d="M4495 2518 c-3 -7 -4 -204 -3 -438 l3 -425 155 0 155 0 3 47 3 47
-93 3 -93 3 0 140 0 140 70 5 70 5 3 47 3 47 -73 3 -73 3 0 140 0 140 80 5 80
5 0 45 0 45 -143 3 c-108 2 -144 0 -147 -10z"/>
<path d="M4904 2516 c-3 -8 -4 -29 -2 -48 l3 -33 65 -5 65 -5 5 -385 5 -385
60 0 60 0 5 385 5 385 68 3 68 3 -3 47 -3 47 -198 3 c-164 2 -198 0 -203 -12z"/>
<path d="M5435 2518 c-3 -7 -4 -204 -3 -438 l3 -425 65 0 65 0 3 193 2 193 63
-3 62 -3 5 -190 5 -190 60 0 60 0 0 435 0 435 -60 0 -60 0 -5 -190 -5 -190
-62 -3 c-60 -3 -63 -2 -63 20 -1 13 -1 93 0 179 0 85 -2 163 -6 172 -5 13 -19
17 -65 17 -39 0 -61 -4 -64 -12z"/>
<path d="M6722 2458 l3 -63 63 -3 62 -3 0 -294 c0 -282 -1 -296 -20 -315 -13
-13 -33 -20 -60 -20 l-40 0 0 -60 c0 -33 3 -61 8 -61 42 -7 120 -5 152 3 47
12 85 52 100 106 6 22 10 162 10 340 l0 302 105 0 105 0 2 -377 3 -378 60 -1
c33 -1 66 1 73 3 9 4 12 102 12 444 l0 439 -320 0 -321 0 3 -62z"/>
<path d="M7552 2458 l3 -63 116 -3 c103 -2 119 -5 135 -23 18 -20 19 -47 24
-378 l5 -356 70 0 70 0 3 339 c3 390 -1 419 -67 485 -49 49 -98 61 -246 61
l-116 0 3 -62z"/>
<path d="M8180 2516 c0 -3 24 -58 54 -123 48 -106 116 -256 220 -488 20 -44
41 -88 46 -97 26 -46 19 -48 -140 -48 l-151 0 3 -62 3 -63 240 -3 c132 -1 246
2 253 6 11 7 10 18 -7 53 -56 122 -144 326 -148 345 -4 17 1 23 23 28 42 11
80 42 99 82 16 35 37 147 50 269 3 33 7 69 8 80 2 18 -5 20 -69 23 l-72 3 -11
-118 c-19 -202 -33 -253 -68 -253 -8 0 -44 63 -88 158 -41 86 -81 168 -88 182
-11 23 -19 25 -85 28 -40 2 -72 1 -72 -2z"/>
<path d="M8930 2455 l0 -65 55 0 55 0 0 -315 0 -315 -60 0 -60 0 0 -60 c0 -73
1 -73 157 -68 l108 3 3 443 2 442 -130 0 -130 0 0 -65z"/>
<path d="M6120 2070 l0 -161 158 3 157 3 3 135 c4 198 21 180 -163 180 l-155
0 0 -160z"/>
</g>
</svg>
